<?xml version="1.0"?>
<svg xmlns="http://www.w3.org/2000/svg" height="512px" viewBox="0 0 512 512" width="512px" class=""><g><path d="m451.910156 130.109375c-2.597656-72.183594-62.566406-130.109375-135.910156-130.109375-46.648438 0-89.214844 23.648438-113.90625 62.496094-6.84375-1.660156-13.902344-2.496094-21.09375-2.496094-39.128906 0-73.578125 24.828125-86.035156 60.496094-54.191406 5.347656-94.964844 52.925781-94.964844 106.503906 0 57.898438 47.101562 105 105 105h106v30h-45c-5.683594 0-10.875 3.210938-13.417969 8.292969-2.539062 5.082031-1.992187 11.160156 1.417969 15.707031l90 120c2.832031 3.777344 7.277344 6 12 6s9.167969-2.222656 12-6l90-120c3.410156-4.546875 3.957031-10.625 1.414062-15.707031-2.539062-5.082031-7.730468-8.292969-13.414062-8.292969h-45v-30h106c57.898438 0 105-47.101562 105-105 0-41.230469-24.238281-79.589844-60.089844-96.890625zm-135.910156 261.890625-60 80-60-80h30c8.285156 0 15-6.714844 15-15v-105h30v105c0 8.285156 6.714844 15 15 15zm91-90h-106v-45c0-8.285156-6.714844-15-15-15h-60c-8.285156 0-15 6.714844-15 15v45h-106c-41.355469 0-75-33.644531-75-75 0-41.613281 34.070312-77.699219 76.253906-76.988281 7.269532.105469 13.507813-4.9375 14.945313-12.019531 5.640625-27.808594 30.789062-47.992188 59.800781-47.992188 7.800781 0 15.324219 1.46875 22.371094 4.359375 7.21875 2.964844 15.5-.097656 19.054687-7.042969 18.078125-35.355468 53.933594-57.316406 93.574219-57.316406 59.558594 0 108.429688 49.152344 105.90625 109.460938-.273438 6.585937 3.785156 12.582031 10.007812 14.773437 29.488282 10.378906 50.085938 40.304687 50.085938 72.765625 0 41.355469-33.644531 75-75 75zm0 0" data-original="#000000" class="active-path" data-old_color="#fe2820" fill="#fe2820"/></g> </svg>
