<?xml version="1.0"?>
<svg xmlns="http://www.w3.org/2000/svg" xmlns:xlink="http://www.w3.org/1999/xlink" version="1.1" id="Capa_1" x="0px" y="0px" viewBox="0 0 286.546 286.546" style="enable-background:new 0 0 286.546 286.546;" xml:space="preserve" width="512px" height="512px" class=""><g><g>
	<path d="M283.054,232.183c-2.801-1.311-7.838,2.681-11.759,2.072c-3.312-0.517-6.38-0.702-10.128-0.522   c-32.852,1.594-33.108-3.72-65.96-2.127c-32.874,1.594-32.618,6.902-65.492,8.496s-33.374-5.303-66.134-2.116   c-7.125,0.691-5.695,7.43-12.483,9.698c-6.804,2.268-8.485-2.774-15.284-0.511c-6.804,2.268-19.738,3.916-12.581,4.406   c39.776,2.725,39.689,5.309,79.557,5.309c39.896,0,39.896-5.314,79.791-5.314s39.896,5.314,79.791,5.314   c3.709,0,6.663-5.64,9.823-6.304c3.835-0.805,9.013,2.899,11.645,1.436c3.981-2.214,2.388-7.305,2.388-10.03   C286.225,239.259,287.357,234.195,283.054,232.183z" data-original="#010002" class="active-path" data-old_color="#97012e" fill="#97012e"/>
	<path d="M203.834,94.651c14.87-14.87,14.87-38.976,0-53.841s-38.976-14.87-53.847,0l-3.845,3.845   l53.847,53.847L203.834,94.651z" data-original="#010002" class="active-path" data-old_color="#97012e" fill="#97012e"/>
	<polygon points="23.073,167.725 0,244.644 76.919,221.571  " data-original="#010002" class="active-path" data-old_color="#97012e" fill="#97012e"/>
	<polygon points="107.024,83.778 34.614,156.188 88.455,210.03 160.866,137.619 188.453,110.038    134.606,56.191  " data-original="#010002" class="active-path" data-old_color="#97012e" fill="#97012e"/>
</g></g> </svg>
